<?xml version="1.0" standalone="no"?>
<!DOCTYPE svg PUBLIC "-//W3C//DTD SVG 20010904//EN"
 "http://www.w3.org/TR/2001/REC-SVG-20010904/DTD/svg10.dtd">
<svg version="1.0" xmlns="http://www.w3.org/2000/svg"
 width="512.000000pt" height="512.000000pt" viewBox="0 0 512.000000 512.000000"
 preserveAspectRatio="xMidYMid meet">

<g transform="translate(0.000000,512.000000) scale(0.100000,-0.100000)"
fill="#000000" stroke="none">
<path d="M570 4791 c-72 -22 -128 -71 -154 -133 -14 -32 -16 -99 -16 -443 l0
-405 139 0 139 0 4 153 c6 171 19 224 74 300 19 26 53 61 76 77 88 64 -34 60
1943 58 l1800 -3 50 -28 c28 -15 60 -34 73 -43 l22 -16 0 156 c0 171 -8 207
-58 259 -15 16 -45 39 -67 50 l-40 22 -1980 2 c-1089 1 -1991 -2 -2005 -6z"/>
<path d="M925 4276 c-61 -28 -87 -56 -117 -121 -19 -43 -23 -71 -26 -197 l-4
-146 538 -4 c513 -4 543 -6 617 -26 108 -30 189 -75 270 -151 87 -82 154 -185
213 -325 76 -183 117 -267 135 -277 11 -5 446 -9 1094 -9 l1076 0 -3 553 c-3
544 -3 553 -25 592 -12 22 -36 54 -55 72 -71 68 78 63 -1885 63 l-1778 0 -50
-24z"/>
<path d="M349 3700 c-88 -15 -163 -71 -207 -154 l-27 -51 -3 -1467 c-2 -1444
-2 -1467 18 -1520 26 -70 66 -117 131 -153 l54 -30 2245 0 2245 0 54 30 c65
36 105 83 131 153 20 53 20 75 18 1130 l-3 1077 -30 54 c-16 29 -47 68 -68 87
-80 67 -13 64 -1236 64 -728 0 -1119 4 -1143 10 -52 15 -90 66 -144 195 -25
60 -58 137 -72 170 -93 214 -222 337 -409 392 -52 15 -136 17 -783 19 -399 1
-746 -1 -771 -6z m2444 -1030 c455 -99 798 -491 836 -953 16 -195 -18 -385
-99 -555 -56 -117 -103 -184 -198 -284 -210 -218 -468 -328 -772 -328 -304 0
-562 110 -772 328 -95 100 -142 167 -198 284 -81 171 -115 361 -99 554 44 515
448 922 974 978 72 7 238 -5 328 -24z"/>
<path d="M2445 2412 c-119 -41 -187 -101 -239 -212 -28 -58 -31 -74 -31 -160
0 -86 3 -101 32 -162 40 -85 106 -151 191 -191 61 -29 76 -32 162 -32 86 0
101 3 162 32 85 40 151 106 191 191 29 61 32 76 32 162 0 83 -4 103 -27 153
-37 79 -78 128 -141 170 -98 65 -229 85 -332 49z"/>
<path d="M2415 1433 c-145 -23 -325 -96 -441 -178 -74 -53 -204 -182 -204
-202 0 -8 44 -58 98 -112 189 -190 384 -277 645 -288 239 -10 416 39 605 170
74 51 232 208 232 231 0 19 -135 152 -206 202 -84 60 -231 128 -334 155 -64
16 -119 23 -225 25 -77 1 -153 0 -170 -3z"/>
</g>
</svg>
